<svg width="256" height="256" viewBox="0 0 256 256" fill="none" xmlns="http://www.w3.org/2000/svg">
  <defs>
    <linearGradient id="bg" x1="0%" y1="0%" x2="100%" y2="100%">
      <stop offset="0%" stop-color="#1d4ed8" /> <!-- blue-700 -->
      <stop offset="100%" stop-color="#312e81" /> <!-- indigo-900 -->
    </linearGradient>
    <linearGradient id="glow" x1="0%" y1="0%" x2="100%" y2="100%">
      <stop offset="0%" stop-color="#fbbf24" stop-opacity="0.3" /> <!-- amber-400 -->
      <stop offset="100%" stop-color="#fbbf24" stop-opacity="0.1" />
    </linearGradient>
  </defs>
  <rect width="256" height="256" rx="60" fill="url(#bg)" />
  
  <g transform="translate(48, 48) scale(6.666)">
    <path d="M11.562 3.266a.5.5 0 0 1 .876 0L15.39 8.87a1 1 0 0 0 1.516.294L21.183 5.5a.5.5 0 0 1 .798.519l-2.834 10.246a1 1 0 0 1-.956.734H5.81a1 1 0 0 1-.957-.734L2.02 6.02a.5.5 0 0 1 .798-.519l4.276 3.664a1 1 0 0 0 1.516-.294z" fill="url(#glow)" stroke="#fbbf24" stroke-width="2" stroke-linecap="round" stroke-linejoin="round"/>
    <path d="M5 21h14" stroke="#fbbf24" stroke-width="2" stroke-linecap="round" stroke-linejoin="round"/>
  </g>
</svg>
